<?xml version="1.0" standalone="no"?>
<!DOCTYPE svg PUBLIC "-//W3C//DTD SVG 20010904//EN"
 "http://www.w3.org/TR/2001/REC-SVG-20010904/DTD/svg10.dtd">
<svg version="1.0" xmlns="http://www.w3.org/2000/svg"
 width="1125.000000pt" height="545.000000pt" viewBox="0 0 1125.000000 545.000000"
 preserveAspectRatio="xMidYMid meet">

<g transform="translate(0.000000,545.000000) scale(0.100000,-0.100000)"
fill="#000000" stroke="none">
<path d="M0 5440 c0 -7 1343 -10 4008 -11 2204 0 3998 -4 3987 -8 -11 -5 -45
-16 -75 -26 -77 -24 -141 -74 -174 -134 -28 -52 -26 -63 4 -36 9 8 50 27 91
41 128 45 235 21 303 -69 14 -19 26 -41 26 -50 0 -10 4 -17 9 -17 17 0 61 -77
61 -108 0 -35 13 -40 44 -17 22 17 64 19 86 5 22 -14 18 -96 -7 -145 -22 -42
-50 -62 -92 -67 -36 -4 -38 -27 -4 -34 25 -5 29 -10 30 -42 4 -141 45 -229
128 -274 28 -15 54 -28 59 -28 11 0 2 57 -29 185 -32 134 -45 237 -54 435 -8
178 -6 170 -87 307 -23 40 -67 61 -89 43 -11 -9 -19 -8 -37 4 -12 9 -35 16
-50 16 -15 0 -30 5 -33 10 -4 7 522 10 1569 10 1044 0 1576 3 1576 10 0 7
-1882 10 -5625 10 -3743 0 -5625 -3 -5625 -10z"/>
<path d="M439 5143 l-56 -24 -26 -94 c-38 -135 -37 -143 26 -185 47 -32 59
-35 132 -37 44 -1 103 -5 130 -7 l50 -5 -40 10 c-22 5 -78 11 -125 12 -79 2
-90 5 -139 36 -61 39 -60 34 -21 180 22 80 23 81 67 101 56 25 60 25 73 -1 16
-28 -11 -58 -45 -51 -25 4 -25 4 -25 -74 0 -69 2 -76 14 -59 21 29 83 26 109
-5 19 -24 19 -24 13 -3 -5 17 -1 26 20 39 22 15 31 16 57 6 17 -6 33 -10 35
-7 6 6 -45 25 -68 25 -10 0 -28 -9 -41 -19 -18 -14 -29 -17 -42 -9 -10 5 -32
8 -50 6 -32 -3 -32 -3 -32 42 0 38 3 45 18 42 23 -4 57 25 57 47 0 9 -8 26
-18 37 l-17 22 -56 -25z"/>
<path d="M641 5070 c-13 -11 -19 -20 -14 -20 6 0 18 9 28 20 23 25 17 25 -14
0z"/>
<path d="M7943 5078 c-33 -11 -46 -38 -18 -38 23 0 95 31 95 41 0 12 -36 10
-77 -3z"/>
<path d="M7686 5044 c-7 -19 11 -91 30 -118 7 -11 11 -30 8 -43 -5 -19 -2 -23
16 -23 12 0 18 -4 15 -10 -4 -6 -11 -8 -16 -5 -5 4 -9 -7 -9 -23 0 -30 108
-254 135 -281 8 -8 34 -17 57 -20 l43 -6 8 -54 c6 -43 4 -59 -10 -80 -17 -26
-73 -83 -73 -74 0 2 -15 -4 -32 -15 -18 -11 -64 -31 -103 -46 -129 -49 -195
-113 -195 -188 0 -33 27 -166 36 -177 1 -1 13 4 26 13 24 17 108 22 108 6 0
-5 -6 -7 -13 -5 -6 3 -18 -4 -25 -15 -7 -11 -8 -20 -3 -20 6 0 13 5 16 10 4 6
10 8 14 6 14 -9 69 59 92 114 12 30 28 62 35 70 11 13 64 126 64 136 0 2 -15
4 -33 4 -18 0 -39 6 -45 12 -10 10 -17 10 -35 -1 -42 -27 2 17 51 50 32 21 48
27 55 20 17 -17 74 -13 81 4 6 17 46 21 46 5 0 -19 17 -10 28 15 16 35 15 55
-3 55 -15 0 -35 57 -35 104 0 22 12 40 53 77 28 27 49 49 45 49 -4 0 -28 -11
-54 -25 -84 -45 -194 -28 -194 29 0 13 7 29 15 36 21 17 19 30 -4 30 -38 0
-30 18 14 31 51 15 41 29 -18 27 -46 -2 -52 4 -37 33 11 19 10 24 -5 35 -10 7
-23 15 -28 17 -7 2 -3 28 11 70 34 103 30 114 -49 160 -53 31 -74 34 -83 11z
m89 -954 c-20 -23 -29 -21 -19 4 3 9 13 16 22 16 13 0 12 -3 -3 -20z"/>
<path d="M7946 5028 c-20 -65 -12 -99 23 -97 12 0 11 2 -4 9 -20 8 -19 9 1 9
12 1 27 7 33 15 6 7 21 11 34 9 28 -4 52 11 42 27 -19 31 -122 53 -129 28z
m74 -28 c13 -9 13 -10 0 -9 -8 0 -24 4 -35 9 l-20 9 20 0 c11 0 27 -4 35 -9z"/>
<path d="M1840 4935 c7 -8 11 -34 8 -60 -2 -29 1 -45 8 -45 7 0 9 10 6 25 -4
22 -1 25 27 25 26 0 31 -4 31 -25 0 -52 18 -22 22 35 2 49 0 60 -13 60 -12 0
-14 -7 -11 -30 4 -28 2 -30 -28 -30 -30 0 -32 2 -28 30 4 25 1 30 -15 30 -16
0 -17 -3 -7 -15z"/>
<path d="M8315 4930 c3 -5 8 -10 11 -10 2 0 4 5 4 10 0 6 -5 10 -11 10 -5 0
-7 -4 -4 -10z"/>
<path d="M2625 4860 l0 -60 43 0 c23 0 42 4 42 8 0 4 -16 6 -35 4 l-35 -4 3
56 c2 35 -1 56 -7 56 -7 0 -11 -24 -11 -60z"/>
<path d="M2018 4899 c6 -7 12 -24 12 -38 0 -18 3 -22 11 -14 14 14 3 49 -19
58 -14 5 -15 4 -4 -6z"/>
<path d="M2118 4864 c2 -24 8 -41 13 -38 13 8 11 60 -4 72 -9 8 -11 1 -9 -34z"/>
<path d="M2169 4864 c1 -24 7 -44 12 -44 14 0 11 66 -4 78 -9 8 -11 1 -8 -34z"/>
<path d="M2256 4895 c6 -15 3 -17 -15 -12 -14 3 -24 0 -28 -9 -7 -20 15 -44
41 -43 21 0 21 0 -1 9 -31 12 -29 30 2 30 28 0 32 12 10 30 -13 11 -14 10 -9
-5z"/>
<path d="M1974 4886 c-8 -22 -1 -49 14 -54 11 -3 12 0 3 16 -6 11 -8 28 -5 36
3 9 3 16 0 16 -4 0 -9 -6 -12 -14z"/>
<path d="M2070 4860 c0 -22 5 -40 10 -40 6 0 10 18 10 40 0 22 -4 40 -10 40
-5 0 -10 -18 -10 -40z"/>
<path d="M410 4876 c0 -2 8 -10 18 -17 15 -13 16 -12 3 4 -13 16 -21 21 -21
13z"/>
<path d="M2749 4858 c12 -12 23 -30 27 -40 3 -10 12 -18 20 -18 18 0 -35 79
-54 80 -8 0 -5 -8 7 -22z"/>
<path d="M2873 4865 c0 -8 4 -15 9 -15 4 0 8 4 8 9 0 6 -4 12 -8 15 -5 3 -9
-1 -9 -9z"/>
<path d="M2915 4840 c0 -22 5 -40 10 -40 6 0 9 17 7 40 -2 22 -7 40 -11 40 -3
0 -6 -18 -6 -40z"/>
<path d="M3065 4840 c0 -22 5 -40 10 -40 6 0 9 17 7 40 -2 22 -7 40 -11 40 -3
0 -6 -18 -6 -40z"/>
<path d="M3233 4865 c0 -8 4 -15 9 -15 4 0 8 4 8 9 0 6 -4 12 -8 15 -5 3 -9
-1 -9 -9z"/>
<path d="M2831 4844 c-1 -35 20 -50 47 -34 14 8 12 9 -10 10 -21 0 -27 5 -31
28 -4 26 -4 26 -6 -4z"/>
<path d="M2978 4858 c-14 -35 22 -72 46 -48 7 7 7 11 1 10 -25 -5 -34 2 -37
28 -2 21 -4 23 -10 10z"/>
<path d="M3110 4864 c0 -7 48 -54 56 -54 14 0 0 22 -26 40 -16 12 -30 18 -30
14z"/>
<path d="M3188 4860 c-12 -37 15 -66 50 -53 14 6 13 8 -8 13 -15 4 -27 15 -30
30 -4 18 -8 20 -12 10z"/>
<path d="M3270 4864 c0 -13 50 -53 55 -44 3 5 -8 18 -25 30 -16 12 -30 18 -30
14z"/>
<path d="M498 4833 c7 -3 16 -2 19 1 4 3 -2 6 -13 5 -11 0 -14 -3 -6 -6z"/>
<path d="M3117 4809 c7 -7 15 -10 18 -7 3 3 -2 9 -12 12 -14 6 -15 5 -6 -5z"/>
<path d="M3270 4810 c0 -6 7 -10 15 -10 8 0 15 2 15 4 0 2 -7 6 -15 10 -8 3
-15 1 -15 -4z"/>
<path d="M7860 4790 c0 -5 9 -10 20 -10 11 0 20 5 20 10 0 6 -9 10 -20 10 -11
0 -20 -4 -20 -10z"/>
<path d="M1825 4770 c-4 -7 75 -10 229 -10 151 0 236 4 236 10 0 6 -83 10
-229 10 -143 0 -232 -4 -236 -10z"/>
<path d="M8494 4361 c-46 -28 -99 -95 -170 -214 -76 -127 -184 -329 -184 -344
0 -15 163 -45 171 -32 4 6 42 13 85 15 44 2 93 8 110 13 22 6 35 5 49 -6 17
-12 20 -29 24 -125 4 -119 8 -121 41 -22 12 34 29 69 39 78 18 16 20 15 48
-21 17 -21 56 -78 88 -128 32 -49 77 -115 101 -147 l44 -56 102 0 c57 0 112
-2 124 -5 41 -10 99 -39 123 -60 l24 -22 -12 23 c-10 19 -9 22 6 23 10 1 -7 9
-37 19 -30 10 -47 18 -37 19 27 2 10 21 -19 21 -14 0 -22 4 -19 10 4 6 -6 10
-22 10 l-28 1 25 14 c14 8 39 15 55 16 24 1 26 3 7 6 -12 2 -45 -2 -73 -10
-36 -11 -47 -12 -40 -3 8 9 1 16 -24 26 -19 7 -32 17 -29 21 5 9 -58 59 -75
59 -22 0 -107 97 -177 203 -38 56 -71 104 -74 107 -9 7 -50 95 -50 106 0 13
-50 57 -57 50 -3 -3 -11 0 -18 7 -33 31 -55 46 -55 37 0 -5 -12 -13 -26 -16
-14 -4 -21 -10 -15 -13 14 -9 10 -51 -5 -51 -7 0 -14 -4 -16 -8 -1 -5 -15 -12
-31 -16 -20 -5 -29 -2 -33 9 -6 14 -8 13 -19 -2 -8 -10 -16 -15 -20 -11 -9 9
75 179 92 185 7 3 20 -2 28 -11 12 -11 13 -16 4 -16 -7 0 -4 -6 6 -14 23 -16
41 -10 25 9 -8 9 -5 11 14 8 13 -3 27 0 31 7 4 7 0 10 -11 8 -15 -2 -18 2 -15
22 1 14 8 28 14 32 8 5 6 9 -5 13 -9 4 -19 14 -22 22 -5 13 -4 13 8 4 11 -9
15 -7 19 9 3 11 5 23 6 26 0 2 9 16 21 31 38 48 14 80 -38 48 l-27 -16 28 25
c15 14 40 27 55 27 21 1 18 3 -13 10 -62 12 -87 10 -121 -10z m-87 -518 c-7
-7 -57 8 -57 18 0 4 14 3 31 -3 16 -6 28 -12 26 -15z m-7 -23 c20 -7 16 -8
-22 -9 -27 -1 -48 4 -48 9 0 12 34 12 70 0z"/>
<path d="M8005 4209 c-4 -6 -5 -12 -2 -15 2 -3 7 2 10 11 7 17 1 20 -8 4z"/>
<path d="M8480 4110 c0 -5 5 -10 11 -10 5 0 7 5 4 10 -3 6 -8 10 -11 10 -2 0
-4 -4 -4 -10z"/>
<path d="M7844 3839 c-28 -10 -60 -73 -75 -148 -10 -48 -10 -78 -1 -144 7 -46
9 -98 6 -115 -12 -58 0 -62 172 -62 l154 0 0 -44 0 -44 -42 -4 c-24 -3 -92 -6
-153 -7 -60 -2 -139 -6 -175 -9 l-65 -7 0 -114 0 -115 -60 -22 c-33 -12 -86
-29 -118 -38 -48 -14 -56 -20 -48 -34 14 -27 10 -130 -5 -136 -13 -5 -33 29
-48 79 -4 11 -18 28 -32 39 -26 18 -26 18 -14 -3 6 -12 10 -34 8 -49 -2 -15 2
-27 8 -27 14 0 48 -35 40 -42 -3 -3 -13 0 -22 8 -13 11 -18 11 -21 2 -3 -7
-17 -13 -32 -13 -25 0 -27 3 -23 33 2 19 -3 40 -13 52 -15 19 -15 17 -13 -38
3 -60 2 -62 -21 -48 -9 6 -12 19 -8 40 7 35 -11 55 -20 21 -5 -20 -6 -20 -20
8 -17 36 -65 62 -62 35 3 -32 -1 -44 -11 -38 -5 3 -11 16 -11 28 -2 23 -16
-38 -26 -108 -3 -22 -13 -49 -22 -59 -9 -11 -11 -17 -6 -14 11 6 541 24 590
20 17 -2 102 -5 190 -8 l160 -5 65 35 c36 19 65 38 65 43 0 4 -19 66 -43 137
-23 71 -42 133 -42 137 0 14 116 11 128 -3 6 -7 21 -53 35 -103 19 -73 28 -91
44 -93 15 -2 22 4 26 25 8 40 63 112 95 124 15 6 45 14 67 18 l40 7 0 78 0 78
30 -5 c54 -9 205 -59 205 -68 0 -5 -17 -24 -37 -44 l-38 -34 200 -1 c226 0
233 -2 266 -74 14 -31 19 -65 19 -138 0 -107 -9 -128 -58 -129 -15 0 -47 -2
-72 -4 -25 -2 -130 -9 -235 -15 -114 -7 -195 -16 -204 -23 -9 -7 -5 1 7 17 29
37 28 53 0 25 -43 -40 -83 -59 -128 -60 -36 0 -41 -2 -25 -10 16 -7 14 -8 -9
-3 -61 11 -108 64 -127 139 l-7 30 -1 -32 c-1 -18 -9 -38 -18 -45 -10 -7 -23
-22 -29 -32 -5 -11 -34 -33 -63 -49 -50 -28 -57 -30 -102 -20 -33 6 -52 6 -59
-1 -16 -16 -12 -24 20 -31 35 -8 35 -8 15 -39 -21 -32 -5 -137 30 -198 32 -56
31 -70 -5 -86 -16 -8 -30 -18 -30 -23 0 -23 55 -43 133 -47 73 -4 80 -3 69 10
-11 13 -8 17 17 26 16 6 98 70 182 143 174 150 222 183 297 205 56 17 106 15
65 -2 l-23 -9 27 -38 c22 -31 26 -49 28 -114 3 -91 -14 -146 -77 -263 -37 -67
-53 -85 -107 -121 -56 -37 -65 -40 -73 -26 -5 10 -14 17 -20 17 -9 0 -9 -3 0
-12 22 -22 13 -35 -33 -45 -32 -7 -46 -7 -49 1 -2 6 -5 3 -5 -6 -1 -24 -49
-24 -66 -1 -11 14 -15 15 -28 4 -29 -23 -81 12 -76 52 3 28 -2 36 -18 30 -31
-12 -52 -41 -46 -63 5 -20 4 -21 -16 -10 -12 6 -25 19 -27 28 -13 41 -29 62
-45 62 -10 0 -30 5 -46 11 -26 10 -26 12 -8 19 18 6 15 9 -18 23 -29 12 -43
27 -57 60 -28 63 -50 177 -50 260 0 90 -10 153 -21 136 -6 -10 -40 -14 -124
-14 l-115 0 4 -25 c19 -95 35 -207 41 -280 3 -47 11 -117 17 -156 l11 -70 -45
-75 c-129 -212 -215 -434 -287 -739 -16 -69 -41 -161 -54 -205 -62 -201 -86
-298 -95 -395 -9 -87 -20 -130 -65 -250 -30 -80 -71 -179 -91 -221 l-37 -76
-1261 -6 c-694 -4 -2291 -7 -3550 -7 l-2288 0 0 -25 0 -25 5625 0 5625 0 0 25
0 25 -907 1 c-500 0 -916 4 -926 8 -10 4 -18 10 -18 14 0 4 -22 53 -49 108
-28 56 -50 111 -50 121 0 33 -39 135 -88 230 -43 85 -144 228 -161 228 -3 0
-15 16 -25 35 -17 31 -48 52 -68 47 -5 -1 -8 5 -8 14 0 8 -4 13 -10 9 -8 -5
-70 111 -70 130 0 3 -26 52 -59 108 -82 143 -101 190 -94 231 5 34 -12 106
-102 415 l-33 114 21 33 c16 25 32 35 57 39 155 25 238 52 510 167 138 59 149
66 214 132 56 59 78 91 122 185 51 107 84 197 84 228 0 7 -12 13 -27 13 -28 1
-28 1 -8 18 11 9 20 22 20 27 0 6 9 36 20 68 16 50 17 65 8 112 -17 78 -64
143 -122 166 -25 11 -63 28 -83 39 -20 11 -50 20 -67 20 -51 0 -79 16 -86 49
-5 24 -39 58 -52 54 -13 -5 -41 12 -36 21 4 6 -1 5 -10 -3 -10 -8 -50 -15
-103 -17 l-85 -3 -21 50 c-12 27 -23 47 -26 45 -2 -3 3 -23 12 -46 20 -50 20
-52 -1 -48 -9 2 -26 28 -39 63 -26 68 -30 64 -10 -10 l13 -50 -50 1 c-47 2
-51 4 -69 38 -21 40 -33 48 -22 14 16 -51 13 -50 -16 7 -16 33 -28 51 -25 40
2 -11 7 -33 11 -48 6 -27 5 -28 -14 -16 -29 18 -38 5 -17 -27 9 -15 12 -23 5
-19 -7 4 -23 31 -36 59 l-24 51 0 -35 -1 -35 -25 30 c-25 29 -26 29 -21 6 6
-22 5 -23 -10 -8 -12 11 -22 13 -39 7 -19 -8 -26 -5 -34 10 -8 16 -17 19 -37
14 -19 -5 -24 -4 -18 6 5 9 2 10 -12 6 -31 -10 -53 3 -54 33 0 26 0 26 -11 4
-9 -18 -16 -21 -37 -17 -14 4 -31 12 -36 19 -8 9 -16 10 -28 4 -20 -12 -40 -3
-31 13 4 6 0 16 -8 22 -8 6 -23 27 -33 46 -11 19 -30 47 -43 62 -14 14 -21 31
-18 37 8 13 -30 23 -70 19 l-29 -3 0 70 c0 52 5 77 19 98 17 27 17 30 2 45
-10 10 -16 12 -16 4 0 -7 -10 -12 -23 -12 -28 0 -47 -17 -47 -43 0 -16 -2 -17
-15 -3 -12 12 -13 24 -6 56 8 35 7 41 -6 36 -9 -4 -17 1 -20 14 -3 11 -8 21
-12 21 -26 6 -50 5 -67 -2z m56 -859 l0 -110 -30 0 c-43 0 -80 39 -80 84 0 69
43 136 87 136 23 0 23 -2 23 -110z m1518 46 c79 -41 122 -163 91 -257 -7 -19
-17 -39 -23 -46 -10 -10 -98 -20 -231 -25 -39 -1 -49 2 -47 13 9 36 14 190 8
223 -4 20 -20 52 -37 70 -20 24 -25 36 -17 39 27 10 230 -4 256 -17z m-2290
-230 c-7 -8 -15 -12 -17 -11 -5 6 10 25 20 25 5 0 4 -6 -3 -14z m1457 -166
c-3 -5 -16 -10 -28 -9 -21 0 -21 1 -2 9 28 12 37 12 30 0z m430 -22 c28 -12
31 -25 12 -49 -19 -25 -88 -52 -101 -39 -5 5 -14 10 -18 10 -19 0 -5 -24 48
-81 55 -59 114 -144 114 -162 0 -6 -14 10 -32 34 -17 24 -58 73 -90 108 -33
36 -58 73 -58 85 0 12 -5 27 -10 32 -8 8 -1 19 22 36 53 40 73 45 113 26z
m278 -8 c10 -9 -64 -63 -101 -75 -29 -9 -72 27 -72 61 0 20 6 23 43 27 50 5
119 -2 130 -13z m-236 -66 c-3 -3 -12 -4 -19 -1 -8 3 -5 6 6 6 11 1 17 -2 13
-5z m-37 -35 c0 -5 -4 -9 -10 -9 -5 0 -10 7 -10 16 0 8 5 12 10 9 6 -3 10 -10
10 -16z m382 -4 c19 -16 37 -23 49 -20 29 10 42 -27 28 -78 -8 -26 -14 -35
-16 -24 -3 9 -13 17 -23 17 -10 0 -24 10 -33 23 -8 12 -29 37 -47 55 -18 18
-30 35 -27 38 3 3 26 -18 53 -45 26 -28 49 -49 52 -46 7 6 -23 50 -55 80 -36
33 -20 33 19 0z m-319 -5 c-29 -12 -29 -14 2 -44 14 -14 25 -35 25 -48 0 -18
-8 -11 -35 31 -19 29 -35 57 -35 62 0 5 15 9 33 8 29 0 30 -1 10 -9z m-173
-59 c0 -12 -5 -11 -21 6 -13 13 -18 26 -14 34 6 9 11 7 22 -6 7 -11 13 -26 13
-34z m-765 -481 c-3 -5 -2 -10 4 -10 5 0 13 4 16 10 4 6 20 3 43 -9 20 -10 56
-22 80 -26 23 -4 42 -11 42 -16 0 -21 -83 -172 -159 -288 -45 -68 -81 -128
-81 -133 0 -5 -22 -41 -48 -81 -90 -134 -172 -273 -213 -361 -47 -101 -92
-227 -83 -235 8 -8 40 36 65 89 12 25 34 56 51 69 35 29 129 155 132 176 1 9
6 15 11 15 5 -1 14 14 20 32 18 59 65 122 65 88 0 -5 6 -7 13 -5 7 3 25 -15
42 -42 16 -26 77 -97 136 -158 58 -61 112 -122 119 -135 7 -14 27 -43 45 -65
17 -22 44 -61 58 -87 15 -25 49 -63 77 -83 42 -31 67 -64 149 -204 54 -91 144
-225 200 -298 56 -72 101 -135 101 -138 0 -4 -361 -5 -802 -2 -780 5 -804 6
-850 26 -28 12 -48 27 -48 36 0 9 11 37 24 64 45 89 95 277 86 325 -1 5 3 12
8 15 5 3 22 65 36 136 45 224 112 407 231 640 39 77 78 163 87 190 9 30 23 54
35 59 11 5 37 37 59 70 21 34 57 79 80 101 22 22 69 86 103 143 35 56 65 102
68 102 2 0 1 -4 -2 -10z m407 -455 c29 -66 70 -146 93 -177 22 -31 55 -83 72
-115 144 -258 192 -332 320 -500 78 -102 189 -295 179 -312 -8 -12 -150 -81
-168 -81 -9 0 -49 58 -98 142 -80 137 -235 380 -382 595 -38 57 -84 135 -103
175 -19 40 -63 127 -98 193 l-64 120 80 94 81 94 18 -54 c10 -30 42 -108 70
-174z m-1124 -992 c-2 -10 -11 -17 -21 -17 -9 1 -17 -2 -17 -7 0 -5 -7 -9 -15
-9 -19 0 -19 6 3 29 22 25 55 27 50 4z"/>
<path d="M7667 3821 c-12 -8 -24 -18 -27 -21 -3 -3 -20 -16 -37 -29 -33 -22
-33 -22 -33 -2 0 31 -17 25 -37 -11 -38 -72 -12 -207 61 -308 18 -25 35 -53
39 -63 5 -14 15 -17 39 -15 31 3 33 6 41 56 7 39 5 64 -8 101 -27 83 -18 266
15 286 6 3 10 10 10 15 0 13 -39 8 -63 -9z"/>
<path d="M8390 3743 c-74 -17 -78 -19 -63 -34 8 -8 26 -8 65 2 29 7 56 12 59
11 4 0 15 8 24 18 17 19 17 20 -1 19 -10 0 -48 -8 -84 -16z"/>
<path d="M8382 3663 c-21 -8 -4 -21 23 -16 13 3 22 9 19 14 -6 10 -21 10 -42
2z"/>
<path d="M8380 3589 c-14 -10 -20 -19 -13 -19 6 0 18 -3 26 -6 9 -3 16 3 20
15 7 29 -4 33 -33 10z"/>
<path d="M8989 3334 c9 -34 29 -74 36 -74 2 0 1 7 -2 17 -4 11 -3 14 5 9 21
-13 13 9 -18 44 l-29 35 8 -31z m31 -39 c0 -5 -5 -3 -10 5 -5 8 -10 20 -10 25
0 6 5 3 10 -5 5 -8 10 -19 10 -25z"/>
<path d="M6430 3062 c0 -12 -6 -31 -12 -42 -10 -15 -10 -23 -2 -28 6 -4 19
-22 28 -40 9 -18 23 -35 31 -38 12 -5 12 -10 -1 -30 -15 -22 -15 -24 0 -30 9
-3 22 -4 30 -1 13 5 36 -10 36 -24 0 -4 -9 -9 -20 -12 -24 -6 -26 -29 -5 -47
11 -9 21 -9 44 1 17 8 26 16 22 19 -4 3 -11 19 -14 37 -5 26 -2 35 15 47 17
12 20 22 15 51 -4 26 -2 38 8 42 8 3 13 9 10 13 -3 5 -27 2 -53 -5 -26 -8 -48
-15 -49 -15 -1 0 -5 16 -9 35 -3 20 -12 35 -20 35 -8 0 -11 6 -7 17 5 12 3 14
-7 8 -8 -5 -18 -1 -27 10 -12 18 -13 18 -13 -3z"/>
<path d="M8412 2992 c-12 -4 -28 -19 -36 -33 l-13 -26 41 3 c77 7 143 -50 150
-128 1 -18 6 -34 11 -35 4 -1 11 -7 15 -13 15 -25 33 31 27 82 -13 110 -100
177 -195 150z"/>
<path d="M6800 2979 c0 -9 5 -31 12 -49 9 -28 9 -35 -7 -46 -17 -12 -17 -15
-1 -39 20 -30 32 -32 46 -5 7 14 7 20 0 20 -5 0 -10 5 -10 10 0 25 22 6 42
-35 21 -42 24 -45 62 -45 46 0 86 9 86 19 0 3 -20 17 -45 31 -28 15 -45 32
-45 43 0 12 -17 26 -54 42 -30 13 -61 34 -70 47 -12 16 -16 18 -16 7z"/>
<path d="M6632 2943 c2 -10 11 -19 21 -21 24 -5 21 15 -4 28 -18 10 -20 9 -17
-7z"/>
<path d="M8445 2910 c3 -5 10 -10 16 -10 5 0 9 5 9 10 0 6 -7 10 -16 10 -8 0
-12 -4 -9 -10z"/>
<path d="M8438 2854 c-5 -4 -8 -20 -8 -35 0 -31 33 -61 57 -52 20 8 47 63 35
75 -12 12 -75 22 -84 12z"/>
<path d="M6700 2833 c0 -24 26 -60 36 -50 10 10 -8 59 -23 65 -8 2 -13 -5 -13
-15z"/>
<path d="M570 2765 c0 -60 3 -75 15 -75 10 0 15 11 15 35 0 32 2 35 30 35 17
0 30 5 30 10 0 6 -13 10 -30 10 -23 0 -30 4 -30 20 0 16 7 20 36 20 21 0 33 4
29 10 -3 6 -26 10 -51 10 l-44 0 0 -75z"/>
<path d="M700 2830 c0 -5 5 -10 10 -10 6 0 10 5 10 10 0 6 -4 10 -10 10 -5 0
-10 -4 -10 -10z"/>
<path d="M1403 2830 c-47 -19 -56 -78 -17 -116 19 -20 31 -24 52 -19 34 8 46
20 37 35 -5 8 -13 6 -27 -6 -27 -25 -52 -7 -56 38 -4 44 20 68 49 50 22 -14
39 -16 39 -4 0 7 -45 34 -53 31 -1 0 -12 -4 -24 -9z"/>
<path d="M1520 2765 c0 -43 4 -75 10 -75 6 0 10 32 10 75 0 43 -4 75 -10 75
-6 0 -10 -32 -10 -75z"/>
<path d="M1709 2836 c0 -3 0 -36 -1 -73 0 -66 0 -66 28 -68 46 -3 64 11 64 49
0 39 -21 61 -50 53 -15 -4 -20 0 -20 13 0 17 -19 40 -21 26z m66 -91 c0 -23
-4 -30 -20 -30 -21 0 -31 25 -21 51 11 28 41 12 41 -21z"/>
<path d="M762 2813 c-5 -10 -7 -37 -4 -60 5 -48 26 -73 44 -55 9 9 9 12 0 12
-15 0 -16 66 -1 76 8 5 6 10 -5 16 -9 5 -14 13 -11 19 4 5 2 9 -4 9 -6 0 -14
-8 -19 -17z"/>
<path d="M8387 2802 c-15 -23 16 -66 55 -76 41 -10 85 9 85 38 0 9 -3 15 -6
13 -52 -27 -64 -30 -88 -21 -16 5 -29 19 -33 34 -4 17 -8 21 -13 12z"/>
<path d="M700 2745 c0 -30 5 -55 10 -55 6 0 10 25 10 55 0 30 -4 55 -10 55 -5
0 -10 -25 -10 -55z"/>
<path d="M830 2743 c0 -29 5 -53 10 -53 6 0 10 15 10 33 0 41 13 62 34 54 11
-4 16 -19 16 -47 0 -22 5 -40 11 -40 6 0 9 21 7 53 l-3 52 -42 1 -43 1 0 -54z"/>
<path d="M966 2784 c-20 -20 -20 -58 0 -78 17 -18 24 -19 48 -10 25 10 19 23
-10 21 -15 -1 -29 4 -31 11 -3 8 7 12 31 12 28 0 36 4 36 18 0 39 -45 55 -74
26z m52 -21 c2 -8 -5 -13 -17 -13 -21 0 -35 13 -24 24 10 10 36 3 41 -11z"/>
<path d="M1080 2790 c-20 -12 -2 -42 29 -50 34 -8 24 -25 -12 -23 -30 3 -31 2
-13 -12 23 -18 31 -18 57 -5 29 16 23 39 -16 56 -39 16 -38 39 2 29 16 -4 22
-2 18 5 -8 13 -45 13 -65 0z"/>
<path d="M1197 2793 c-18 -17 -6 -44 23 -49 17 -4 30 -13 30 -21 0 -12 -8 -14
-37 -9 -36 6 -37 6 -18 -9 13 -10 29 -14 45 -10 48 12 47 52 -1 62 -16 3 -29
12 -29 20 0 11 7 13 31 8 22 -5 29 -4 25 4 -8 12 -58 15 -69 4z"/>
<path d="M1580 2750 c0 -27 3 -50 8 -51 4 -1 24 -2 45 -3 l37 -3 0 54 c0 29
-4 53 -10 53 -5 0 -10 -15 -10 -34 0 -35 -21 -63 -40 -51 -5 3 -10 24 -10 46
0 21 -4 39 -10 39 -5 0 -10 -22 -10 -50z"/>
<path d="M8220 2760 c0 -5 5 -10 11 -10 5 0 7 5 4 10 -3 6 -8 10 -11 10 -2 0
-4 -4 -4 -10z"/>
<path d="M6550 2735 c-10 -12 -10 -18 0 -29 16 -20 42 -8 38 17 -4 26 -21 32
-38 12z"/>
<path d="M8110 2739 c0 -5 5 -7 10 -4 6 3 10 8 10 11 0 2 -4 4 -10 4 -5 0 -10
-5 -10 -11z"/>
<path d="M9909 2726 c-2 -3 -56 -8 -119 -12 -63 -3 -117 -8 -119 -10 -3 -3 57
-3 133 -2 96 2 141 7 148 15 8 10 4 13 -14 13 -14 0 -27 -2 -29 -4z"/>
<path d="M8094 2676 c-3 -21 -4 -39 -1 -42 3 -4 9 10 13 30 3 21 4 39 1 42 -3
4 -9 -10 -13 -30z"/>
<path d="M9615 2700 c3 -5 14 -10 23 -10 15 0 15 2 2 10 -20 13 -33 13 -25 0z"/>
<path d="M630 2233 c-46 -18 -62 -61 -40 -103 6 -11 35 -27 66 -37 60 -18 74
-34 54 -58 -20 -24 -67 -19 -85 9 -11 16 -22 22 -35 19 -54 -14 13 -83 80 -83
117 0 133 124 20 157 -23 7 -49 18 -57 25 -13 10 -13 14 3 25 26 19 52 16 66
-7 15 -23 58 -27 58 -6 0 29 -35 57 -75 61 -22 3 -47 2 -55 -2z"/>
<path d="M1938 2225 c-56 -31 -43 -100 24 -124 18 -7 43 -17 56 -22 30 -12 29
-47 -2 -55 -34 -8 -64 3 -71 27 -7 20 -10 21 -37 11 -15 -6 -16 -11 -5 -32 18
-35 55 -52 105 -47 52 6 82 30 82 69 0 48 -17 66 -76 84 -56 16 -78 39 -53 55
23 14 48 10 66 -11 22 -25 53 -26 53 -2 0 47 -90 76 -142 47z"/>
<path d="M1503 2215 c-13 -9 -23 -23 -23 -31 0 -8 -4 -14 -10 -14 -5 0 -10 -9
-10 -20 0 -11 5 -20 10 -20 6 0 10 -26 10 -59 0 -66 15 -91 56 -91 17 0 24 5
24 20 0 11 -7 20 -15 20 -12 0 -15 13 -15 55 0 42 3 55 15 55 8 0 15 9 15 20
0 11 -6 20 -14 20 -9 0 -16 12 -18 30 -3 30 -4 30 -25 15z"/>
<path d="M2452 2213 c2 -10 13 -19 26 -21 17 -3 22 2 22 17 0 16 -6 21 -26 21
-19 0 -25 -5 -22 -17z"/>
<path d="M2560 2110 c0 -113 1 -120 20 -120 19 0 20 7 20 120 0 113 -1 120
-20 120 -19 0 -20 -7 -20 -120z"/>
<path d="M800 2161 c0 -6 11 -46 25 -90 23 -71 29 -81 49 -81 20 0 26 8 36 51
14 57 20 56 35 -4 9 -34 16 -43 36 -45 24 -3 27 2 49 75 12 43 25 84 28 91 3
10 -2 13 -19 10 -19 -2 -26 -14 -40 -58 -17 -58 -20 -56 -39 18 -9 35 -15 43
-32 40 -15 -2 -25 -17 -38 -58 l-17 -55 -17 58 c-13 44 -22 57 -37 57 -10 0
-19 -4 -19 -9z"/>
<path d="M1101 2144 c-14 -18 -21 -41 -21 -71 0 -82 76 -121 136 -69 l28 23
-24 8 c-15 5 -25 4 -28 -4 -6 -19 -50 -12 -62 9 -10 19 -8 20 50 20 59 0 60 0
60 29 0 46 -34 81 -80 81 -30 0 -43 -6 -59 -26z m89 -23 c15 -29 13 -31 -25
-31 -28 0 -35 4 -35 19 0 33 44 41 60 12z"/>
<path d="M1295 2148 c-14 -21 -14 -23 1 -26 9 -2 27 2 40 8 25 14 58 7 52 -11
-2 -6 -26 -18 -53 -28 -44 -14 -50 -20 -53 -47 -4 -43 21 -68 62 -59 17 3 45
6 61 6 l30 -1 -3 78 c-2 42 -9 83 -14 90 -6 6 -32 12 -59 12 -38 0 -51 -4 -64
-22z m95 -87 c0 -24 -14 -41 -35 -41 -32 0 -42 20 -20 37 21 15 55 18 55 4z"/>
<path d="M2140 2080 c0 -89 0 -90 25 -90 24 0 25 2 25 69 0 61 3 70 20 76 33
10 40 -3 40 -76 0 -67 1 -69 25 -69 24 0 25 2 25 69 0 62 2 70 21 76 30 10 39
-9 39 -82 0 -56 2 -63 20 -63 18 0 20 7 20 78 0 47 -5 83 -12 90 -16 16 -70
16 -86 0 -9 -9 -15 -9 -24 0 -15 15 -53 16 -79 2 -13 -7 -19 -7 -19 0 0 5 -9
10 -20 10 -19 0 -20 -7 -20 -90z"/>
<path d="M2457 2163 c-4 -3 -7 -44 -7 -90 0 -82 0 -83 25 -83 25 0 25 1 25 90
0 81 -2 90 -18 90 -10 0 -22 -3 -25 -7z"/>
<path d="M2678 2160 c-23 -14 -41 -74 -33 -110 8 -36 48 -70 84 -70 27 0 71
24 71 39 0 14 -33 22 -44 11 -23 -23 -66 -6 -66 26 0 2 27 4 60 4 54 0 60 2
60 20 0 29 -26 76 -45 84 -24 9 -68 7 -87 -4z m70 -32 c23 -23 13 -38 -23 -38
-22 0 -35 5 -35 13 0 16 20 37 35 37 6 0 16 -5 23 -12z"/>
<path d="M1700 2011 c0 -10 7 -22 16 -25 15 -6 15 -8 0 -25 -10 -11 -13 -21
-7 -25 17 -11 41 24 41 60 0 30 -3 34 -25 34 -18 0 -25 -5 -25 -19z"/>
<path d="M8465 2000 c3 -5 10 -10 16 -10 5 0 9 5 9 10 0 6 -7 10 -16 10 -8 0
-12 -4 -9 -10z"/>
<path d="M1110 1670 c0 -37 -2 -40 -19 -30 -60 32 -120 -32 -104 -111 11 -57
77 -90 112 -56 11 10 14 10 18 0 3 -7 13 -13 24 -13 18 0 19 8 19 125 l0 125
-25 0 c-23 0 -25 -4 -25 -40z m-16 -66 c19 -18 21 -85 4 -102 -45 -45 -95 52
-51 100 20 22 27 22 47 2z"/>
<path d="M1310 1586 l0 -126 25 0 c24 0 25 3 25 56 0 52 2 55 22 52 14 -2 36
-23 58 -55 28 -41 41 -52 63 -53 15 0 27 3 27 6 0 4 -16 29 -35 56 l-36 49 26
20 c28 23 33 64 11 95 -12 16 -29 20 -100 23 l-86 3 0 -126z m145 54 c0 -23
-4 -25 -47 -28 -48 -3 -48 -3 -48 28 0 31 0 31 48 28 43 -3 47 -5 47 -28z"/>
<path d="M2388 1689 c-10 -5 -18 -19 -18 -29 0 -11 -4 -20 -10 -20 -5 0 -10
-7 -10 -15 0 -8 5 -15 10 -15 6 0 10 -28 10 -63 0 -36 5 -68 12 -75 18 -18 68
-15 68 3 0 8 -7 15 -15 15 -12 0 -15 13 -15 60 0 47 3 60 15 60 8 0 15 7 15
15 0 8 -7 15 -15 15 -10 0 -15 10 -15 30 0 32 -5 35 -32 19z"/>
<path d="M594 1629 c-15 -17 -16 -22 -4 -29 8 -5 22 -3 35 6 24 16 55 9 55
-11 0 -7 -17 -16 -37 -20 -64 -12 -88 -48 -63 -96 12 -22 68 -26 89 -6 11 10
14 10 18 0 3 -7 13 -13 23 -13 16 0 18 7 13 83 -6 93 -16 107 -73 107 -25 0
-43 -7 -56 -21z m86 -98 c0 -27 -28 -47 -47 -35 -22 14 -19 27 8 41 33 17 39
16 39 -6z"/>
<path d="M837 1633 c-11 -11 -17 -13 -17 -5 0 7 -9 12 -20 12 -19 0 -20 -7
-20 -90 0 -83 1 -90 20 -90 18 0 20 7 20 60 0 46 4 64 20 80 35 35 50 16 50
-66 0 -72 1 -74 25 -74 25 0 25 1 25 78 0 64 -4 82 -18 95 -24 22 -63 22 -85
0z"/>
<path d="M1587 1630 c-32 -25 -42 -69 -27 -115 13 -41 35 -55 83 -55 30 0 67
24 67 43 0 11 -39 8 -59 -5 -15 -9 -23 -9 -35 1 -33 28 -19 41 45 41 l62 0 -7
33 c-7 38 -48 77 -80 77 -13 0 -35 -9 -49 -20z m83 -45 c0 -10 -11 -15 -35
-15 -38 0 -44 10 -19 34 18 18 54 5 54 -19z"/>
<path d="M1830 1641 c-8 -6 -27 -7 -42 -4 l-28 6 0 -127 0 -126 25 0 c23 0 25
4 25 47 0 37 3 44 12 35 15 -15 53 -16 78 -2 23 12 42 74 33 109 -13 55 -64
86 -103 62z m42 -38 c33 -30 17 -113 -22 -113 -38 0 -55 83 -24 114 19 20 23
20 46 -1z"/>
<path d="M1995 1625 c-33 -32 -35 -100 -4 -139 27 -35 88 -37 122 -3 l22 22
-24 3 c-13 2 -28 -1 -34 -7 -15 -15 -33 -14 -51 5 -27 27 -18 34 44 34 l60 0
0 30 c0 41 -39 80 -80 80 -19 0 -40 -9 -55 -25z m80 -25 c23 -26 16 -32 -29
-28 -36 3 -36 3 -21 26 20 27 27 27 50 2z"/>
<path d="M2189 1629 c-19 -19 -20 -23 -6 -31 11 -6 25 -3 42 8 24 16 27 16 42
1 18 -18 21 -16 -52 -39 -35 -11 -40 -17 -43 -46 -2 -18 2 -40 9 -48 14 -17
70 -19 86 -3 8 8 13 8 17 0 4 -6 16 -11 28 -11 14 0 18 5 14 16 -3 9 -6 44 -6
79 0 76 -14 95 -71 95 -26 0 -46 -7 -60 -21z m91 -92 c0 -7 -6 -22 -14 -33
-12 -15 -19 -17 -32 -8 -27 16 -28 33 -2 43 33 14 48 13 48 -2z"/>
<path d="M583 1048 c-30 -39 -20 -91 21 -109 29 -13 66 3 66 29 -1 16 -2 15
-15 -1 -31 -42 -87 -1 -69 50 11 34 39 41 65 17 20 -18 27 -6 7 14 -16 16 -63
15 -75 0z"/>
<path d="M703 995 c0 -38 2 -54 4 -35 8 65 43 78 43 15 0 -19 5 -37 10 -40 16
-10 12 71 -4 84 -7 6 -20 9 -29 5 -11 -4 -17 2 -20 18 -2 13 -4 -8 -4 -47z"/>
<path d="M980 994 c0 -41 4 -63 10 -59 6 3 10 16 10 28 1 21 2 20 25 -8 28
-33 34 -23 9 13 -15 21 -15 25 2 43 21 23 8 25 -18 2 -17 -15 -18 -14 -18 15
0 18 -4 32 -10 32 -6 0 -10 -29 -10 -66z"/>
<path d="M1423 995 c0 -54 1 -61 6 -30 5 31 10 40 26 40 16 0 21 -9 26 -40 l6
-40 2 46 c1 48 -12 65 -43 53 -9 -4 -16 3 -19 18 -2 13 -4 -8 -4 -47z"/>
<path d="M2203 1046 c-11 -19 -4 -118 8 -110 5 3 9 23 9 45 0 55 23 46 31 -12
l6 -44 1 41 c1 22 7 45 14 52 9 9 9 12 -2 12 -11 1 -10 5 4 15 19 15 19 15 -2
15 -13 0 -22 -6 -22 -15 0 -8 -7 -15 -15 -15 -18 0 -20 16 -2 23 7 3 5 6 -5 6
-9 1 -21 -5 -25 -13z"/>
<path d="M1267 1037 c-8 -21 8 -100 21 -105 6 -2 12 1 12 7 0 6 -4 11 -10 11
-13 0 -13 53 -1 66 6 5 4 14 -4 21 -10 9 -14 9 -18 0z"/>
<path d="M1368 1039 c-7 -20 7 -102 17 -106 9 -3 10 31 5 110 0 11 -18 8 -22
-4z"/>
<path d="M1998 1040 c-7 -22 5 -99 16 -103 10 -4 12 22 6 106 0 11 -18 9 -22
-3z"/>
<path d="M2489 1039 c-3 -29 3 -94 10 -101 3 -4 6 17 5 48 -1 50 -12 87 -15
53z"/>
<path d="M808 1019 c-25 -14 -24 -65 2 -79 14 -8 26 -8 40 0 29 15 25 20 -10
14 -19 -4 -30 -2 -30 5 0 6 14 11 30 11 23 0 30 4 30 20 0 10 -9 24 -19 30
-23 12 -22 12 -43 -1z m47 -19 c4 -6 -5 -10 -19 -10 -14 0 -26 5 -26 10 0 6 9
10 19 10 11 0 23 -4 26 -10z"/>
<path d="M908 1019 c-25 -14 -24 -65 1 -79 24 -13 51 -3 51 19 0 13 -2 13 -9
3 -14 -23 -46 -10 -46 18 0 21 5 25 28 25 30 -1 36 9 11 19 -19 7 -15 8 -36
-5z"/>
<path d="M1074 1005 c-15 -23 -15 -27 0 -50 9 -14 23 -25 31 -25 19 0 45 28
45 50 0 22 -26 50 -45 50 -8 0 -22 -11 -31 -25z m56 -27 c0 -25 -4 -29 -22
-26 -26 3 -35 32 -18 53 18 21 40 6 40 -27z"/>
<path d="M1171 988 c0 -27 2 -49 7 -49 4 -1 19 -2 35 -3 26 -2 27 -1 26 49
l-2 50 -6 -40 c-5 -31 -10 -40 -26 -40 -16 0 -21 9 -26 40 l-6 40 -2 -47z"/>
<path d="M1526 1014 c-9 -8 -16 -24 -16 -34 0 -21 25 -50 44 -50 8 0 19 7 26
15 11 13 8 14 -19 9 -20 -4 -31 -3 -31 5 0 6 14 11 30 11 22 0 30 5 30 18 0
38 -37 54 -64 26z m35 -22 c-28 -4 -40 6 -21 18 9 6 20 4 29 -3 12 -10 11 -13
-8 -15z"/>
<path d="M1672 976 c1 -50 2 -50 5 -8 3 34 8 42 24 42 16 0 19 -8 21 -42 1
-41 1 -41 5 -8 8 65 43 78 43 15 0 -19 5 -37 10 -40 6 -4 10 10 10 34 0 47
-10 55 -72 57 l-48 1 2 -51z"/>
<path d="M1822 1018 c-19 -19 -15 -66 8 -78 30 -16 60 4 60 40 0 40 -42 64
-68 38z m52 -23 c8 -23 -4 -45 -25 -45 -22 0 -34 22 -25 45 3 8 14 15 25 15
10 0 21 -7 25 -15z"/>
<path d="M1923 1023 c-23 -9 -14 -40 12 -47 14 -4 25 -11 25 -17 0 -7 -11 -9
-25 -7 -27 6 -34 -6 -9 -16 20 -8 56 12 51 27 -2 7 -13 17 -25 23 -35 18 -39
27 -9 22 29 -6 37 6 11 16 -9 3 -16 6 -17 5 -1 0 -8 -3 -14 -6z"/>
<path d="M2112 1018 c-19 -19 -15 -66 7 -78 20 -10 51 -4 51 11 0 4 -7 6 -15
3 -8 -4 -23 -3 -32 2 -14 6 -11 9 16 13 40 7 49 22 26 45 -19 19 -37 20 -53 4z
m48 -19 c0 -5 -12 -9 -26 -9 -22 0 -24 2 -14 14 12 15 40 11 40 -5z"/>
<path d="M2306 1014 c-9 -8 -16 -24 -16 -34 0 -21 25 -50 44 -50 8 0 19 7 26
15 11 13 8 14 -19 9 -20 -4 -31 -3 -31 5 0 6 14 11 30 11 22 0 30 5 30 18 0
38 -37 54 -64 26z m49 -14 c4 -6 -5 -10 -19 -10 -14 0 -26 5 -26 10 0 6 9 10
19 10 11 0 23 -4 26 -10z"/>
<path d="M2408 1019 c-25 -14 -24 -65 1 -79 25 -13 51 -3 50 19 0 10 -2 11 -6
4 -7 -18 -40 -16 -47 2 -10 26 5 47 30 42 27 -5 33 8 8 17 -19 7 -15 8 -36 -5z"/>
<path d="M2530 979 c0 -31 4 -48 10 -44 6 3 10 26 10 51 0 24 -4 44 -10 44 -5
0 -10 -23 -10 -51z"/>
<path d="M2571 1020 c0 -8 8 -33 18 -55 l18 -40 17 40 c9 21 15 46 13 55 -2 8
-9 -3 -17 -25 l-13 -40 -18 40 c-10 22 -18 33 -18 25z"/>
<path d="M2678 1019 c-25 -14 -24 -65 2 -79 14 -8 26 -8 40 0 27 15 25 22 -4
14 -14 -3 -31 -2 -38 2 -9 6 -2 10 21 14 40 6 49 21 26 44 -19 19 -24 19 -47
5z m42 -19 c0 -5 -12 -10 -26 -10 -14 0 -23 4 -19 10 3 6 15 10 26 10 10 0 19
-4 19 -10z"/>
<path d="M2822 1018 c-36 -36 4 -101 48 -78 27 15 25 22 -4 14 -14 -3 -31 -2
-38 2 -9 6 -2 10 21 14 40 6 49 21 26 44 -19 19 -37 20 -53 4z m48 -18 c0 -5
-12 -10 -26 -10 -14 0 -23 4 -19 10 3 6 15 10 26 10 10 0 19 -4 19 -10z"/>
<path d="M2910 1024 c0 -6 5 -15 12 -22 9 -9 9 -18 -1 -38 -14 -32 -7 -44 9
-14 l11 21 19 -23 c22 -26 27 -12 5 16 -12 16 -12 22 2 42 8 13 11 24 5 24 -5
0 -13 -7 -16 -16 -6 -15 -8 -15 -26 1 -11 10 -20 14 -20 9z"/>
<path d="M3004 1005 c-15 -23 -15 -27 0 -50 17 -26 24 -29 50 -19 25 9 19 22
-8 17 -13 -3 -27 0 -30 6 -5 7 4 11 23 11 38 0 48 16 25 41 -23 26 -40 24 -60
-6z m56 -6 c0 -5 -12 -9 -26 -9 -22 0 -24 2 -14 14 12 15 40 11 40 -5z"/>
<path d="M3102 975 c1 -50 2 -50 5 -7 3 28 9 42 19 42 8 0 14 4 14 9 0 6 -9 9
-20 8 -17 -1 -20 -8 -18 -52z"/>
<path d="M3166 1014 c-21 -21 -20 -47 3 -68 15 -14 24 -15 40 -6 12 6 21 16
21 22 0 9 -3 9 -12 0 -23 -23 -48 -14 -48 17 0 29 24 49 35 31 4 -6 11 -10 17
-10 7 0 6 6 -2 15 -16 19 -35 19 -54 -1z"/>
<path d="M3253 980 c0 -30 2 -43 4 -27 2 15 2 39 0 55 -2 15 -4 2 -4 -28z"/>
<path d="M3289 1014 c-11 -14 -10 -18 6 -30 10 -8 25 -14 32 -14 7 0 13 -5 13
-11 0 -8 -11 -9 -32 -5 -31 5 -32 5 -14 -9 25 -19 31 -19 51 1 19 19 4 44 -26
44 -11 0 -19 4 -19 8 0 17 13 21 31 11 11 -6 19 -6 19 0 0 9 -23 21 -40 21 -4
0 -14 -7 -21 -16z"/>
<path d="M3388 1019 c-22 -12 -23 -52 -2 -73 19 -20 38 -20 54 -1 11 13 8 14
-19 9 -20 -4 -31 -3 -31 5 0 6 14 11 30 11 23 0 30 4 30 20 0 10 -9 24 -19 30
-23 12 -22 12 -43 -1z m47 -19 c4 -6 -5 -10 -19 -10 -14 0 -26 5 -26 10 0 6 9
10 19 10 11 0 23 -4 26 -10z"/>
<path d="M3483 1023 c-21 -8 -15 -33 12 -45 14 -6 25 -16 25 -21 0 -5 -11 -7
-25 -5 -30 6 -34 -8 -5 -17 23 -7 50 10 50 30 0 7 -15 18 -32 24 -26 9 -30 14
-18 21 9 6 19 5 24 0 16 -16 30 -11 16 5 -13 15 -25 17 -47 8z"/>
<path d="M556 584 c-12 -31 -7 -389 6 -402 17 -17 1449 -17 1466 0 13 13 18
371 6 402 -6 14 -80 16 -739 16 -659 0 -733 -2 -739 -16z m184 -154 c0 -5 -9
-10 -20 -10 -27 0 -25 -18 3 -23 22 -4 22 -5 -3 -13 l-25 -8 29 -7 c22 -6 32
-4 42 9 8 11 9 21 3 26 -5 6 -9 16 -9 24 0 12 3 12 15 2 12 -10 18 -10 30 0
17 14 20 3 6 -19 -6 -9 -6 -22 1 -34 12 -22 1 -38 -12 -17 -7 12 -12 12 -22 2
-6 -6 -31 -12 -55 -12 l-43 0 0 45 c0 43 1 45 30 45 17 0 30 -4 30 -10z m155
-20 c0 -18 -6 -26 -22 -28 -13 -2 -23 -10 -23 -18 0 -8 -4 -14 -10 -14 -11 0
-14 73 -3 84 4 4 19 6 33 4 19 -2 25 -9 25 -28z m35 -11 c0 -19 5 -29 15 -29
8 0 15 -4 15 -10 0 -5 -11 -10 -25 -10 -23 0 -25 4 -25 46 0 27 4 43 10 39 6
-3 10 -19 10 -36z m115 21 c15 -17 16 -24 7 -45 -14 -31 -56 -34 -72 -6 -14
27 -13 37 6 55 21 21 37 20 59 -4z m85 5 c9 -11 10 -19 1 -28 -8 -10 -7 -17 1
-25 6 -6 8 -15 4 -19 -4 -4 -16 3 -26 17 l-19 25 -10 -25 c-9 -22 -10 -19 -10
23 -1 43 1 47 23 47 13 0 29 -7 36 -15z m80 5 c0 -5 -9 -10 -20 -10 -11 0 -20
-4 -20 -10 0 -5 9 -10 21 -10 12 0 17 -4 14 -11 -4 -6 -13 -8 -21 -5 -8 3 -14
1 -14 -4 0 -6 9 -10 20 -10 11 0 20 -4 20 -10 0 -5 -13 -10 -30 -10 -29 0 -30
2 -30 45 0 43 1 45 30 45 17 0 30 -4 30 -10z m110 0 c0 -5 -9 -10 -20 -10 -11
0 -20 -4 -20 -10 0 -5 9 -10 21 -10 12 0 17 -4 14 -11 -4 -6 -13 -8 -21 -5 -8
3 -14 0 -14 -7 0 -17 59 -15 70 2 5 9 5 22 -1 32 -13 26 -11 33 6 19 12 -10
18 -10 30 0 12 10 15 10 15 -3 0 -9 -5 -19 -10 -22 -7 -4 -6 -14 2 -28 12 -21
13 -20 18 18 5 37 8 40 38 43 18 2 32 -1 32 -7 0 -6 -11 -11 -25 -11 -14 0
-25 -4 -25 -10 0 -5 12 -10 27 -10 29 0 22 -15 -12 -23 -18 -4 -18 -5 2 -6 12
0 25 -5 28 -11 9 -14 -78 -13 -93 2 -9 9 -15 9 -24 0 -7 -7 -31 -12 -55 -12
l-43 0 0 45 c0 43 1 45 30 45 17 0 30 -4 30 -10z m235 -25 c1 -17 4 -36 8 -43
13 -19 -5 -14 -30 10 l-23 21 0 -21 c0 -12 -4 -22 -10 -22 -11 0 -14 73 -3 84
4 4 19 6 33 4 20 -2 25 -8 25 -33z m85 21 c10 -13 7 -15 -16 -13 -20 1 -29 -3
-32 -17 -5 -25 14 -44 30 -28 17 17 33 15 18 -3 -26 -31 -70 -11 -70 32 0 36
47 56 70 29z m40 -37 c0 -21 -4 -39 -10 -39 -5 0 -10 21 -10 46 0 27 4 43 10
39 6 -3 10 -24 10 -46z m71 35 c11 -13 9 -14 -14 -9 -34 9 -35 -2 -1 -15 36
-14 29 -45 -10 -45 -16 0 -31 6 -34 13 -3 9 4 11 25 7 l28 -6 -27 16 c-29 16
-37 40 -15 48 22 10 34 7 48 -9z m79 6 c0 -5 -9 -10 -20 -10 -11 0 -20 -4 -20
-10 0 -5 9 -10 21 -10 12 0 17 -4 14 -11 -4 -6 -13 -8 -21 -5 -8 3 -14 -1 -14
-8 0 -9 7 -12 20 -9 11 3 20 0 20 -6 0 -6 -13 -11 -30 -11 -29 0 -30 2 -30 45
0 43 1 45 30 45 17 0 30 -4 30 -10z m64 4 c26 -10 18 -25 -9 -18 -33 8 -32 -4
1 -16 16 -7 24 -16 22 -28 -4 -22 -53 -29 -61 -8 -5 12 0 14 26 10 31 -4 32
-4 7 8 -33 16 -41 30 -28 45 12 15 19 16 42 7z"/>
<path d="M850 410 c0 -5 7 -10 15 -10 8 0 15 5 15 10 0 6 -7 10 -15 10 -8 0
-15 -4 -15 -10z"/>
<path d="M993 404 c-3 -8 1 -22 9 -30 13 -13 16 -13 27 0 7 9 11 23 7 31 -7
20 -35 19 -43 -1z"/>
<path d="M1080 410 c0 -5 6 -10 14 -10 8 0 18 5 21 10 3 6 -3 10 -14 10 -12 0
-21 -4 -21 -10z"/>
<path d="M1510 410 c0 -5 7 -10 15 -10 8 0 15 5 15 10 0 6 -7 10 -15 10 -8 0
-15 -4 -15 -10z"/>
</g>
</svg>
